# xmcd
#
# Track frame offsets: 
#        150
#        14353
#        26261
#        39245
#        53025
#        65256
#        77225
#        89714
#        102023
#        115386
#        127936
#        139538
#        153368
#        164750
#        173871
#        184881
#        194744
#        206544
#        218849
#        230861
#
# Disc length: 3201 seconds
#
# Revision: 0
# Processed by: cddbd v1.5.2PL0 Copyright (c) Steve Scherf et al.
# Submitted via: ExactAudioCopy v0.99pb4
#
DISCID=180c7f14
DTITLE=Ernest Tubb and Justin Tubb - Just You And Me, Daddy
DYEAR=1999
DGENRE=Country
TTITLE0=Let's Say Goodbye Like We Said Hello
TTITLE1=Thanks A Lot
TTITLE2=Driftwood On The River
TTITLE3=Seaman's Blues
TTITLE4=There's A Little Bit Of Everything In Texas
TTITLE5=Waltz Across Texas
TTITLE6=Drivin' Nails In My Coffin
TTITLE7=Journey's End
TTITLE8=My Blue Eyed Elaine
TTITLE9=You Nearly Lose Your Mind
TTITLE10=Letters Have No Arms
TTITLE11=Our Baby's Book
TTITLE12=Answer The Phone
TTITLE13=Jealous Loving Heart
TTITLE14=I'll Step Aside
TTITLE15=Half My Heart's In Texas
TTITLE16=Half A Mind
TTITLE17=Try Me One More Time
TTITLE18=A Month Of Sundays
TTITLE19=Wallkin' The Floor Over You
EXTD=
EXTT0=
EXTT1=
EXTT2=
EXTT3=
EXTT4=
EXTT5=
EXTT6=
EXTT7=
EXTT8=
EXTT9=
EXTT10=
EXTT11=
EXTT12=
EXTT13=
EXTT14=
EXTT15=
EXTT16=
EXTT17=
EXTT18=
EXTT19=
PLAYORDER=
